<svg id="svg" xmlns="http://www.w3.org/2000/svg" xmlns:xlink="http://www.w3.org/1999/xlink" width="400" height="400" viewBox="0, 0, 400,400" version="1.1"><g id="svgg"><path id="path0" d="M197.133 26.778 C 197.016 27.111,188.767 27.489,180.038 27.561 C 176.926 27.586,175.465 27.858,175.771 28.354 C 175.872 28.517,174.964 28.574,173.753 28.482 C 171.960 28.344,171.439 28.451,170.946 29.057 C 170.613 29.465,170.432 29.612,170.543 29.383 C 170.793 28.867,165.583 29.112,165.020 29.642 C 164.811 29.839,164.035 30.000,163.296 30.000 C 162.503 30.000,162.054 30.164,162.200 30.400 C 162.350 30.642,161.796 30.800,160.800 30.800 C 159.804 30.800,159.250 30.958,159.400 31.200 C 159.622 31.558,157.195 31.831,155.660 31.621 C 155.363 31.580,155.238 31.739,155.383 31.973 C 155.667 32.432,155.284 32.519,153.400 32.425 C 152.465 32.379,152.333 32.456,152.800 32.777 C 153.255 33.088,152.988 33.189,151.700 33.194 C 150.765 33.197,150.000 33.343,150.000 33.518 C 150.000 33.693,149.330 33.882,148.512 33.937 C 147.694 33.992,146.904 34.231,146.758 34.468 C 146.611 34.706,146.017 34.900,145.438 34.900 C 144.859 34.900,144.288 35.057,144.169 35.250 C 144.050 35.443,143.503 35.600,142.953 35.600 C 142.388 35.600,142.060 35.774,142.200 36.000 C 142.346 36.236,141.903 36.400,141.120 36.400 C 140.195 36.400,139.630 36.661,139.256 37.259 C 138.827 37.947,138.652 38.007,138.377 37.562 C 138.103 37.120,137.932 37.108,137.537 37.503 C 137.263 37.777,136.671 38.003,136.220 38.006 C 135.544 38.011,135.505 38.080,136.000 38.400 C 136.446 38.688,136.210 38.789,135.083 38.794 C 134.126 38.798,133.250 39.095,132.708 39.600 C 132.236 40.040,131.433 40.400,130.925 40.400 C 130.416 40.400,130.000 40.580,130.000 40.800 C 130.000 41.020,129.590 41.200,129.088 41.200 C 128.587 41.200,127.917 41.560,127.600 42.000 C 127.283 42.440,126.791 42.800,126.506 42.800 C 126.222 42.800,125.677 42.964,125.295 43.165 C 124.913 43.365,123.745 43.830,122.700 44.198 C 121.642 44.570,120.800 45.117,120.800 45.433 C 120.800 45.745,120.609 46.000,120.376 46.000 C 120.143 46.000,120.063 45.822,120.197 45.605 C 120.337 45.378,120.177 45.311,119.821 45.447 C 119.479 45.578,119.200 45.857,119.200 46.066 C 119.200 46.276,119.019 46.335,118.797 46.198 C 118.576 46.061,118.286 46.231,118.154 46.575 C 118.022 46.919,117.484 47.200,116.957 47.200 C 116.390 47.200,116.000 47.435,116.000 47.776 C 116.000 48.093,115.792 48.481,115.538 48.638 C 115.252 48.815,115.185 48.748,115.362 48.462 C 115.742 47.847,115.170 47.896,114.306 48.552 C 113.925 48.842,113.745 49.225,113.906 49.404 C 114.068 49.582,113.965 49.592,113.677 49.426 C 113.367 49.248,112.513 49.548,111.585 50.162 C 110.723 50.733,109.910 51.200,109.780 51.200 C 109.371 51.200,108.400 52.322,108.400 52.795 C 108.400 53.044,108.219 53.135,107.997 52.998 C 107.776 52.861,107.073 53.121,106.436 53.575 C 105.798 54.029,105.079 54.400,104.838 54.400 C 104.597 54.400,104.400 54.580,104.400 54.800 C 104.400 55.020,104.175 55.201,103.900 55.202 C 103.625 55.203,102.860 55.698,102.200 56.302 C 101.540 56.906,100.508 57.654,99.907 57.964 C 99.305 58.274,98.708 58.859,98.580 59.264 C 98.451 59.669,97.977 60.000,97.527 60.000 C 97.076 60.000,96.073 60.675,95.297 61.500 C 94.520 62.325,94.036 62.730,94.219 62.400 C 94.650 61.627,93.654 62.377,91.697 64.300 C 90.969 65.015,90.232 65.600,90.058 65.600 C 89.569 65.600,86.000 69.133,86.000 69.617 C 86.000 69.854,85.829 69.941,85.619 69.812 C 85.410 69.683,84.645 70.137,83.919 70.822 C 83.194 71.508,82.825 71.952,83.100 71.810 C 83.375 71.669,83.600 71.743,83.600 71.976 C 83.600 72.209,83.330 72.400,83.000 72.400 C 82.670 72.400,82.397 72.625,82.394 72.900 C 82.390 73.233,82.258 73.200,82.000 72.800 C 81.669 72.287,81.611 72.302,81.606 72.900 C 81.603 73.285,81.409 73.600,81.176 73.600 C 80.943 73.600,80.883 73.811,81.042 74.068 C 81.240 74.389,81.107 74.450,80.617 74.262 C 80.046 74.043,79.946 74.149,80.114 74.794 C 80.271 75.392,80.130 75.600,79.570 75.600 C 79.155 75.600,77.728 76.680,76.400 78.000 C 75.072 79.320,74.113 80.400,74.269 80.400 C 74.425 80.400,74.204 80.683,73.776 81.030 C 73.349 81.376,73.225 81.545,73.500 81.406 C 73.775 81.267,74.000 81.258,74.000 81.386 C 74.000 81.515,73.539 81.795,72.976 82.009 C 72.413 82.223,72.066 82.583,72.206 82.809 C 72.345 83.035,72.308 83.170,72.122 83.110 C 71.936 83.049,71.338 83.431,70.792 83.959 C 70.247 84.486,70.025 84.791,70.300 84.635 C 70.575 84.480,70.800 84.543,70.800 84.776 C 70.800 85.009,70.640 85.200,70.443 85.200 C 69.987 85.200,65.600 89.575,65.600 90.030 C 65.600 90.219,65.015 90.969,64.300 91.697 C 62.628 93.399,61.655 94.641,62.295 94.256 C 62.613 94.065,62.718 94.149,62.588 94.488 C 62.476 94.779,61.983 95.193,61.492 95.408 C 61.002 95.624,60.428 96.385,60.217 97.099 C 60.007 97.814,59.541 98.492,59.182 98.606 C 58.822 98.720,58.274 99.305,57.964 99.907 C 57.654 100.508,56.906 101.540,56.302 102.200 C 55.698 102.860,55.203 103.625,55.202 103.900 C 55.201 104.175,55.020 104.400,54.800 104.400 C 54.580 104.400,54.400 104.636,54.400 104.925 C 54.400 105.213,54.040 105.836,53.600 106.308 C 53.160 106.780,52.800 107.404,52.800 107.695 C 52.800 107.986,52.440 108.483,52.000 108.800 C 51.560 109.117,51.200 109.521,51.200 109.697 C 51.200 109.873,50.733 110.723,50.162 111.585 C 49.548 112.513,49.248 113.367,49.426 113.677 C 49.592 113.965,49.582 114.068,49.404 113.906 C 49.225 113.745,48.842 113.925,48.552 114.306 C 47.896 115.170,47.847 115.742,48.462 115.362 C 48.748 115.185,48.815 115.252,48.638 115.538 C 48.481 115.792,48.137 116.000,47.874 116.000 C 47.276 116.000,46.251 118.236,46.594 118.791 C 46.733 119.016,46.586 119.200,46.266 119.200 C 45.947 119.200,45.578 119.479,45.447 119.821 C 45.311 120.177,45.378 120.337,45.605 120.197 C 45.822 120.063,46.000 120.143,46.000 120.376 C 46.000 120.609,45.763 120.800,45.474 120.800 C 44.888 120.800,43.600 123.232,43.600 124.338 C 43.600 124.729,43.240 125.436,42.800 125.908 C 42.360 126.380,42.000 127.044,42.000 127.383 C 42.000 127.722,41.820 128.000,41.600 128.000 C 41.380 128.000,41.200 128.551,41.200 129.224 C 41.200 129.937,41.033 130.344,40.800 130.200 C 40.580 130.064,40.400 130.323,40.400 130.776 C 40.400 131.229,40.220 131.600,40.000 131.600 C 39.780 131.600,39.600 131.960,39.600 132.400 C 39.600 132.840,39.409 133.200,39.175 133.200 C 38.941 133.200,38.782 133.515,38.821 133.900 C 38.962 135.282,38.793 136.043,38.400 135.800 C 38.180 135.664,38.000 135.887,38.000 136.296 C 38.000 136.705,37.777 137.263,37.503 137.537 C 37.108 137.932,37.120 138.103,37.562 138.377 C 38.007 138.652,37.947 138.827,37.259 139.256 C 36.717 139.594,36.400 140.200,36.400 140.896 C 36.400 141.503,36.220 142.000,36.000 142.000 C 35.780 142.000,35.600 142.540,35.600 143.200 C 35.600 143.860,35.443 144.400,35.250 144.400 C 35.057 144.400,34.900 144.870,34.900 145.445 C 34.900 146.021,34.706 146.611,34.468 146.758 C 34.231 146.904,33.992 147.694,33.937 148.512 C 33.882 149.330,33.693 150.000,33.518 150.000 C 33.343 150.000,33.200 150.420,33.200 150.933 C 33.200 151.447,33.071 151.995,32.914 152.153 C 32.508 152.559,31.639 155.995,31.618 157.276 C 31.608 157.868,31.449 158.446,31.265 158.560 C 31.082 158.673,30.899 159.620,30.859 160.663 C 30.820 161.707,30.617 162.666,30.410 162.794 C 30.202 162.922,29.980 163.769,29.916 164.675 C 29.852 165.581,29.689 166.254,29.554 166.171 C 29.263 165.992,28.717 170.472,28.648 173.600 C 28.620 174.900,28.391 175.933,28.089 176.126 C 27.746 176.345,27.571 177.527,27.556 179.726 C 27.498 188.515,27.118 197.014,26.778 197.133 C 26.570 197.207,26.400 197.442,26.400 197.657 C 26.400 197.872,26.580 197.936,26.800 197.800 C 27.050 197.645,27.200 198.470,27.200 200.000 C 27.200 201.530,27.050 202.355,26.800 202.200 C 26.580 202.064,26.400 202.128,26.400 202.343 C 26.400 202.558,26.560 202.793,26.756 202.867 C 27.048 202.976,27.622 215.202,27.578 220.366 C 27.571 221.117,27.799 221.879,28.083 222.060 C 28.483 222.313,28.487 222.389,28.100 222.394 C 27.825 222.397,27.600 222.681,27.600 223.024 C 27.600 223.367,27.761 223.548,27.958 223.426 C 28.155 223.304,28.423 223.483,28.554 223.823 C 28.707 224.223,28.629 224.342,28.334 224.159 C 28.027 223.969,27.987 224.056,28.214 224.422 C 28.399 224.722,28.504 225.721,28.448 226.643 C 28.391 227.565,28.494 228.411,28.676 228.524 C 28.859 228.636,29.064 229.861,29.133 231.244 C 29.201 232.628,29.425 234.072,29.629 234.454 C 29.833 234.835,30.000 235.689,30.000 236.350 C 30.000 237.012,30.180 237.664,30.400 237.800 C 30.620 237.936,30.800 238.721,30.800 239.544 C 30.800 240.367,30.984 241.224,31.210 241.450 C 31.435 241.675,31.644 242.514,31.674 243.313 C 31.704 244.113,31.859 244.687,32.019 244.588 C 32.179 244.489,32.302 244.632,32.292 244.904 C 32.226 246.719,32.454 248.014,32.800 247.800 C 33.038 247.653,33.200 248.121,33.200 248.953 C 33.200 249.723,33.408 250.481,33.662 250.638 C 33.967 250.827,34.014 250.746,33.800 250.400 C 33.590 250.061,33.633 249.973,33.921 250.151 C 34.165 250.302,34.264 250.690,34.140 251.013 C 34.016 251.336,34.052 251.915,34.221 252.300 C 34.389 252.685,34.598 253.493,34.685 254.096 C 34.772 254.699,35.095 255.676,35.401 256.268 C 35.708 256.859,35.850 257.518,35.718 257.733 C 35.584 257.950,35.682 257.996,35.938 257.838 C 36.256 257.642,36.402 258.028,36.406 259.076 C 36.411 260.207,36.512 260.445,36.800 260.000 C 37.089 259.553,37.189 259.776,37.194 260.876 C 37.197 261.688,37.380 262.464,37.600 262.600 C 37.820 262.736,38.000 263.182,38.000 263.590 C 38.000 263.999,38.178 264.393,38.397 264.467 C 38.615 264.540,38.834 265.095,38.884 265.700 C 38.934 266.305,39.115 266.800,39.287 266.800 C 39.459 266.800,39.603 267.205,39.606 267.700 C 39.611 268.428,39.686 268.485,40.000 268.000 C 40.302 267.532,40.389 267.643,40.394 268.500 C 40.397 269.105,40.580 269.600,40.800 269.600 C 41.020 269.600,41.200 270.140,41.200 270.800 C 41.200 271.460,41.380 272.000,41.600 272.000 C 41.820 272.000,42.000 272.360,42.000 272.800 C 42.000 273.240,42.180 273.600,42.400 273.600 C 42.620 273.600,42.800 273.870,42.800 274.200 C 42.800 274.530,42.980 274.800,43.200 274.800 C 43.420 274.800,43.600 275.169,43.600 275.620 C 43.600 276.519,44.690 278.856,45.290 279.245 C 45.498 279.379,45.653 279.604,45.634 279.745 C 45.524 280.570,45.654 280.814,46.068 280.558 C 46.381 280.365,46.453 280.485,46.285 280.923 C 46.147 281.283,46.296 281.839,46.617 282.160 C 46.938 282.481,47.200 283.006,47.200 283.329 C 47.200 283.651,47.485 284.024,47.833 284.157 C 48.182 284.291,48.393 284.622,48.303 284.892 C 48.212 285.163,48.512 285.716,48.969 286.122 C 49.426 286.529,49.530 286.744,49.200 286.600 C 48.870 286.456,48.969 286.668,49.421 287.070 C 49.872 287.471,50.242 287.890,50.243 288.000 C 50.247 288.637,51.421 290.711,51.685 290.548 C 51.858 290.440,52.000 290.633,52.000 290.976 C 52.000 291.319,52.180 291.600,52.400 291.600 C 52.620 291.600,52.800 291.960,52.800 292.400 C 52.800 292.844,53.067 293.200,53.400 293.200 C 53.730 293.200,53.964 293.335,53.921 293.500 C 53.757 294.120,54.472 295.602,54.829 295.382 C 55.033 295.256,55.206 295.478,55.213 295.876 C 55.228 296.760,56.180 298.087,56.540 297.727 C 56.683 297.584,56.800 297.767,56.800 298.133 C 56.800 298.500,56.980 298.800,57.200 298.800 C 57.420 298.800,57.600 299.025,57.600 299.300 C 57.601 299.911,59.351 302.000,59.861 302.000 C 60.064 302.000,60.258 302.374,60.292 302.832 C 60.370 303.868,61.116 304.800,61.867 304.800 C 62.179 304.800,62.399 305.025,62.354 305.300 C 62.230 306.071,62.841 307.222,63.242 306.974 C 63.439 306.852,63.600 307.007,63.600 307.318 C 63.600 307.629,64.113 308.315,64.741 308.842 C 65.368 309.369,66.115 310.250,66.400 310.800 C 66.685 311.350,67.432 312.231,68.059 312.758 C 68.687 313.285,69.200 313.964,69.200 314.267 C 69.200 314.569,69.644 315.020,70.187 315.267 C 70.731 315.515,71.082 315.867,70.969 316.050 C 70.715 316.461,74.230 320.037,74.561 319.705 C 74.693 319.574,74.800 319.777,74.800 320.157 C 74.800 320.537,74.980 320.736,75.200 320.600 C 75.420 320.464,75.600 320.556,75.600 320.805 C 75.600 321.389,76.611 322.400,77.195 322.400 C 77.444 322.400,77.551 322.555,77.434 322.745 C 77.202 323.120,80.127 326.000,80.740 326.000 C 80.946 326.000,81.222 326.281,81.354 326.625 C 81.489 326.975,81.799 327.124,82.059 326.964 C 82.330 326.796,82.416 326.850,82.266 327.093 C 82.125 327.322,82.311 327.755,82.681 328.055 C 83.260 328.524,83.304 328.516,83.000 328.000 C 82.697 327.486,82.742 327.477,83.310 327.938 C 83.676 328.234,83.935 328.684,83.887 328.938 C 83.839 329.192,84.118 329.346,84.506 329.281 C 84.895 329.216,85.188 329.306,85.159 329.481 C 85.029 330.252,85.234 330.800,85.653 330.800 C 85.903 330.800,86.993 331.700,88.076 332.800 C 89.158 333.900,90.265 334.800,90.534 334.800 C 90.803 334.800,91.283 335.160,91.600 335.600 C 91.917 336.040,92.437 336.400,92.755 336.400 C 93.073 336.400,93.219 336.514,93.080 336.654 C 92.791 336.942,96.126 339.600,96.776 339.600 C 97.009 339.600,97.200 339.799,97.200 340.043 C 97.200 340.286,97.479 340.378,97.821 340.247 C 98.162 340.116,98.344 340.167,98.225 340.359 C 97.955 340.797,98.977 341.689,99.337 341.330 C 99.482 341.185,99.600 341.286,99.600 341.554 C 99.600 341.822,100.140 342.230,100.800 342.460 C 101.460 342.690,102.000 343.141,102.000 343.463 C 102.000 343.784,102.180 343.936,102.400 343.800 C 102.620 343.664,102.800 343.773,102.800 344.043 C 102.800 344.313,102.909 344.424,103.042 344.291 C 103.176 344.158,103.722 344.486,104.257 345.020 C 104.791 345.555,105.671 346.103,106.211 346.239 C 106.759 346.376,107.079 346.672,106.935 346.906 C 106.771 347.170,106.985 347.245,107.512 347.107 C 108.022 346.974,108.431 347.105,108.562 347.444 C 108.679 347.750,109.096 348.003,109.487 348.006 C 110.094 348.011,110.111 348.070,109.600 348.400 C 109.158 348.686,109.139 348.789,109.528 348.794 C 109.818 348.797,110.841 349.340,111.800 350.000 C 112.759 350.660,113.837 351.200,114.196 351.200 C 114.554 351.200,114.736 351.380,114.600 351.600 C 114.464 351.820,114.723 352.000,115.176 352.000 C 115.629 352.000,116.000 352.136,116.000 352.302 C 116.000 352.570,118.285 353.756,118.800 353.755 C 118.910 353.755,119.349 354.080,119.775 354.478 C 120.202 354.875,120.877 355.200,121.275 355.200 C 121.674 355.200,122.000 355.338,122.000 355.507 C 122.000 355.861,126.447 357.851,126.900 357.700 C 127.065 357.645,127.200 357.761,127.200 357.957 C 127.200 358.154,127.479 358.422,127.821 358.553 C 128.237 358.712,128.350 358.628,128.162 358.295 C 127.944 357.909,128.001 357.910,128.421 358.300 C 128.718 358.575,129.284 358.800,129.680 358.800 C 130.076 358.800,130.400 358.980,130.400 359.200 C 130.400 359.420,130.895 359.603,131.500 359.606 C 132.357 359.611,132.468 359.698,132.000 360.000 C 131.515 360.314,131.572 360.389,132.300 360.394 C 132.795 360.397,133.200 360.580,133.200 360.800 C 133.200 361.020,133.757 361.200,134.438 361.200 C 135.119 361.200,136.199 361.572,136.838 362.027 C 137.477 362.482,138.000 362.662,138.000 362.427 C 138.000 362.192,138.191 362.000,138.424 362.000 C 138.657 362.000,138.736 362.180,138.600 362.400 C 138.464 362.620,138.633 362.800,138.976 362.800 C 139.319 362.800,139.600 362.980,139.600 363.200 C 139.600 363.420,140.241 363.600,141.024 363.600 C 141.871 363.600,142.347 363.762,142.200 364.000 C 142.060 364.226,142.388 364.400,142.953 364.400 C 143.503 364.400,144.064 364.580,144.200 364.800 C 144.336 365.020,144.977 365.200,145.624 365.200 C 146.271 365.200,146.800 365.341,146.800 365.513 C 146.800 365.685,147.277 365.865,147.860 365.913 C 148.442 365.961,149.131 366.176,149.389 366.391 C 149.700 366.649,150.038 366.615,150.388 366.290 C 150.807 365.902,150.858 365.904,150.635 366.300 C 150.432 366.660,150.779 366.808,151.876 366.828 C 153.093 366.851,153.239 366.925,152.600 367.200 C 151.926 367.490,152.000 367.548,153.076 367.572 C 153.778 367.587,154.464 367.780,154.600 368.000 C 154.736 368.220,155.872 368.403,157.124 368.406 C 158.746 368.410,159.228 368.524,158.800 368.802 C 158.378 369.076,158.767 369.150,160.110 369.051 C 161.161 368.974,162.134 369.093,162.272 369.317 C 162.426 369.566,162.321 369.598,162.000 369.400 C 161.643 369.179,161.573 369.232,161.779 369.566 C 161.963 369.864,162.809 370.017,163.941 369.958 C 165.196 369.892,165.767 370.013,165.700 370.330 C 165.634 370.641,166.285 370.800,167.626 370.800 C 168.741 370.800,170.001 370.986,170.426 371.214 C 170.960 371.500,171.200 371.500,171.200 371.214 C 171.200 370.986,171.391 370.800,171.624 370.800 C 171.857 370.800,171.927 370.995,171.780 371.233 C 171.599 371.525,172.102 371.630,173.321 371.555 C 174.315 371.493,175.376 371.648,175.678 371.898 C 175.994 372.161,178.001 372.390,180.413 372.440 C 182.902 372.491,184.717 372.704,184.888 372.963 C 185.091 373.272,185.426 373.245,186.030 372.870 C 186.499 372.579,186.771 372.523,186.633 372.747 C 186.469 373.012,188.163 373.159,191.549 373.173 C 194.391 373.184,197.034 373.315,197.424 373.464 C 197.908 373.650,198.040 373.588,197.842 373.268 C 197.653 372.962,197.872 372.802,198.476 372.806 C 199.219 372.811,199.283 372.888,198.800 373.200 C 198.470 373.413,198.389 373.591,198.620 373.594 C 198.851 373.597,199.256 373.384,199.520 373.120 C 199.893 372.747,200.107 372.747,200.480 373.120 C 200.744 373.384,201.149 373.597,201.380 373.594 C 201.611 373.591,201.530 373.413,201.200 373.200 C 200.717 372.888,200.781 372.811,201.524 372.806 C 202.128 372.802,202.347 372.962,202.158 373.268 C 201.959 373.590,202.094 373.650,202.590 373.459 C 202.987 373.307,205.986 373.179,209.256 373.176 C 212.525 373.172,215.200 373.041,215.200 372.884 C 215.200 372.581,215.466 372.558,220.935 372.392 C 223.062 372.327,224.538 372.107,224.640 371.839 C 224.741 371.576,225.525 371.452,226.569 371.535 C 228.011 371.650,228.361 371.542,228.517 370.937 C 228.693 370.255,228.711 370.253,228.754 370.914 C 228.794 371.528,228.926 371.561,229.699 371.147 C 230.193 370.883,231.438 370.704,232.464 370.751 C 233.490 370.798,234.447 370.648,234.589 370.418 C 234.731 370.188,235.521 370.000,236.344 370.000 C 237.167 370.000,238.049 369.791,238.305 369.535 C 238.561 369.279,239.452 369.084,240.285 369.102 C 241.459 369.127,241.620 369.058,241.000 368.796 C 240.074 368.403,240.951 368.266,243.630 368.387 C 244.450 368.424,245.261 368.208,245.532 367.881 C 245.809 367.549,246.420 367.391,247.003 367.503 C 247.713 367.638,248.000 367.518,248.000 367.084 C 248.000 366.665,248.258 366.542,248.826 366.691 C 249.281 366.810,250.046 366.728,250.526 366.509 C 252.033 365.822,254.218 365.201,255.228 365.172 C 256.129 365.146,256.141 365.119,255.400 364.800 C 254.742 364.517,254.849 364.449,256.000 364.415 C 256.770 364.393,257.723 364.129,258.119 363.830 C 258.514 363.530,259.234 363.371,259.719 363.477 C 260.430 363.632,260.484 363.587,260.000 363.241 C 259.519 362.897,259.638 362.809,260.600 362.797 C 261.260 362.789,262.250 362.430,262.800 362.000 C 263.401 361.530,264.439 361.212,265.400 361.203 C 266.582 361.192,266.843 361.087,266.400 360.800 C 265.912 360.485,265.964 360.411,266.676 360.406 C 267.158 360.403,267.664 360.220,267.800 360.000 C 267.936 359.780,268.577 359.600,269.224 359.600 C 269.871 359.600,270.400 359.420,270.400 359.200 C 270.400 358.980,270.747 358.800,271.171 358.800 C 271.596 358.800,272.185 358.575,272.481 358.300 C 272.777 358.025,273.285 357.750,273.610 357.689 C 274.591 357.504,276.179 356.634,276.525 356.092 C 276.703 355.812,277.018 355.688,277.225 355.815 C 277.431 355.943,277.600 355.895,277.600 355.709 C 277.600 355.523,277.929 355.345,278.331 355.315 C 278.734 355.285,279.949 354.740,281.031 354.104 C 282.114 353.468,283.585 352.690,284.300 352.376 C 285.015 352.062,285.600 351.571,285.600 351.285 C 285.600 350.999,285.825 350.801,286.100 350.846 C 286.790 350.957,288.033 350.377,287.825 350.041 C 287.732 349.890,288.045 349.737,288.522 349.701 C 288.998 349.665,289.451 349.448,289.527 349.218 C 289.604 348.988,289.849 348.800,290.073 348.800 C 290.296 348.800,291.001 348.241,291.640 347.558 C 292.288 346.864,292.805 346.555,292.812 346.858 C 292.820 347.213,292.967 347.156,293.237 346.692 C 293.464 346.302,293.784 346.067,293.949 346.168 C 294.114 346.270,294.868 345.824,295.624 345.178 C 296.381 344.531,297.153 344.001,297.340 344.001 C 297.526 344.000,298.201 343.441,298.840 342.758 C 299.478 342.074,300.000 341.724,300.000 341.978 C 300.000 342.232,300.585 341.892,301.300 341.222 C 302.015 340.552,302.790 340.003,303.022 340.002 C 303.254 340.001,304.131 339.370,304.972 338.600 C 305.813 337.830,306.574 337.200,306.664 337.200 C 306.754 337.200,307.355 336.660,308.000 336.000 C 308.645 335.340,309.370 334.800,309.610 334.800 C 309.851 334.800,309.949 334.640,309.828 334.445 C 309.707 334.250,309.911 333.845,310.281 333.545 C 310.744 333.170,310.860 333.156,310.653 333.500 C 310.247 334.176,310.723 334.134,311.425 333.432 C 311.861 332.996,311.877 332.818,311.496 332.664 C 311.223 332.553,311.365 332.449,311.812 332.432 C 312.258 332.414,312.883 332.040,313.200 331.600 C 313.517 331.160,314.011 330.800,314.297 330.800 C 314.583 330.800,315.020 330.356,315.267 329.813 C 315.515 329.269,315.859 328.913,316.033 329.020 C 316.406 329.251,318.400 327.346,318.400 326.758 C 318.400 326.535,318.567 326.456,318.771 326.582 C 318.975 326.708,319.257 326.449,319.398 326.006 C 319.539 325.563,319.867 325.198,320.127 325.195 C 320.760 325.188,326.033 319.766,325.716 319.449 C 325.579 319.312,325.767 319.200,326.133 319.200 C 326.500 319.200,326.800 318.919,326.800 318.576 C 326.800 318.233,326.935 318.035,327.100 318.134 C 327.491 318.371,328.426 317.360,328.109 317.043 C 327.976 316.909,328.167 316.800,328.533 316.800 C 328.900 316.800,329.200 316.573,329.200 316.296 C 329.200 316.019,329.560 315.568,330.000 315.293 C 330.440 315.018,330.800 314.601,330.800 314.365 C 330.800 314.130,331.520 313.246,332.400 312.400 C 333.966 310.895,334.495 310.055,333.500 310.653 C 333.156 310.860,333.170 310.744,333.545 310.281 C 333.845 309.911,334.250 309.707,334.445 309.828 C 334.640 309.949,334.800 309.851,334.800 309.610 C 334.800 309.370,335.340 308.645,336.000 308.000 C 336.660 307.355,337.200 306.641,337.200 306.413 C 337.200 306.186,337.391 306.000,337.624 306.000 C 337.857 306.000,337.936 305.820,337.800 305.600 C 337.664 305.380,337.790 305.200,338.080 305.200 C 338.597 305.200,339.835 303.639,339.703 303.153 C 339.666 303.017,340.077 302.491,340.618 301.983 C 341.158 301.476,341.600 300.721,341.600 300.307 C 341.600 299.892,341.780 299.664,342.000 299.800 C 342.220 299.936,342.400 299.806,342.400 299.512 C 342.400 299.217,342.760 298.717,343.200 298.400 C 343.640 298.083,344.000 297.591,344.000 297.308 C 344.000 297.025,344.536 296.231,345.192 295.545 C 345.848 294.859,346.286 294.140,346.167 293.946 C 346.047 293.753,346.230 293.487,346.572 293.355 C 346.915 293.224,347.103 292.967,346.990 292.784 C 346.877 292.601,347.238 291.998,347.792 291.444 C 348.347 290.890,348.800 290.248,348.800 290.018 C 348.800 289.788,348.991 289.600,349.224 289.600 C 349.457 289.600,349.550 289.443,349.432 289.252 C 349.314 289.061,349.647 288.404,350.173 287.792 C 350.699 287.180,351.036 286.437,350.922 286.140 C 350.801 285.825,350.982 285.600,351.357 285.600 C 351.711 285.600,352.000 285.328,352.000 284.995 C 352.000 284.375,352.787 282.762,353.268 282.396 C 353.415 282.284,353.595 281.931,353.668 281.612 C 353.741 281.293,354.115 280.675,354.500 280.240 C 355.131 279.528,355.381 278.744,355.247 277.900 C 355.221 277.735,355.362 277.600,355.559 277.600 C 356.102 277.600,358.800 271.757,358.800 270.581 C 358.800 269.997,358.973 269.660,359.200 269.800 C 359.420 269.936,359.600 269.677,359.600 269.224 C 359.600 268.771,359.780 268.400,360.000 268.400 C 360.220 268.400,360.403 267.815,360.406 267.100 C 360.411 266.114,360.506 265.945,360.800 266.400 C 361.095 266.857,361.189 266.698,361.194 265.733 C 361.197 265.037,361.425 264.376,361.700 264.265 C 362.035 264.130,362.048 264.053,361.738 264.032 C 361.213 263.996,361.960 262.009,362.500 262.003 C 362.665 262.001,362.813 261.325,362.828 260.500 C 362.851 259.297,362.924 259.158,363.200 259.800 C 363.463 260.412,363.552 260.176,363.578 258.800 C 363.603 257.484,363.716 257.161,364.000 257.600 C 364.303 258.069,364.389 257.966,364.394 257.124 C 364.397 256.532,364.580 255.936,364.800 255.800 C 365.020 255.664,365.200 255.124,365.200 254.600 C 365.200 254.076,365.380 253.536,365.600 253.400 C 365.820 253.264,366.000 252.634,366.000 252.000 C 366.000 251.366,366.180 250.736,366.400 250.600 C 366.620 250.464,366.800 249.823,366.800 249.176 C 366.800 248.529,366.980 248.000,367.200 248.000 C 367.420 248.000,367.600 247.471,367.600 246.824 C 367.600 246.177,367.759 245.549,367.953 245.429 C 368.147 245.309,368.316 244.461,368.329 243.544 C 368.341 242.627,368.559 241.749,368.812 241.593 C 369.065 241.436,369.215 240.767,369.145 240.104 C 369.076 239.442,369.263 238.607,369.560 238.248 C 369.923 237.811,370.038 236.937,369.909 235.598 C 369.747 233.910,369.805 233.672,370.282 234.068 C 370.756 234.461,370.831 234.222,370.756 232.567 C 370.706 231.484,370.876 230.206,371.132 229.728 C 371.522 228.999,371.484 228.829,370.899 228.675 C 370.260 228.509,370.263 228.489,370.930 228.446 C 371.527 228.408,371.648 228.089,371.593 226.700 C 371.492 224.158,371.565 223.531,371.934 223.759 C 372.118 223.873,372.322 222.488,372.387 220.683 C 372.453 218.877,372.528 216.905,372.553 216.300 C 372.579 215.695,372.728 215.200,372.884 215.200 C 373.041 215.200,373.172 212.525,373.176 209.256 C 373.179 205.986,373.307 202.987,373.459 202.590 C 373.650 202.094,373.590 201.959,373.268 202.158 C 372.962 202.347,372.802 202.128,372.806 201.524 C 372.811 200.781,372.888 200.717,373.200 201.200 C 373.413 201.530,373.591 201.611,373.594 201.380 C 373.597 201.149,373.384 200.744,373.120 200.480 C 372.747 200.107,372.747 199.893,373.120 199.520 C 373.384 199.256,373.597 198.851,373.594 198.620 C 373.591 198.389,373.413 198.470,373.200 198.800 C 372.888 199.283,372.811 199.219,372.806 198.476 C 372.802 197.872,372.962 197.653,373.268 197.842 C 373.588 198.040,373.650 197.908,373.464 197.424 C 373.315 197.034,373.184 194.391,373.173 191.549 C 373.159 188.163,373.012 186.469,372.747 186.633 C 372.523 186.771,372.579 186.499,372.870 186.030 C 373.245 185.426,373.272 185.091,372.963 184.888 C 372.703 184.717,372.492 182.899,372.441 180.400 C 372.392 177.990,372.169 176.030,371.919 175.800 C 371.613 175.520,371.579 175.568,371.803 175.962 C 372.010 176.324,371.970 176.429,371.691 176.256 C 371.417 176.087,371.344 175.162,371.492 173.732 C 371.662 172.079,371.601 171.552,371.262 171.761 C 371.008 171.919,370.800 171.857,370.800 171.624 C 370.800 171.391,370.986 171.200,371.214 171.200 C 371.500 171.200,371.500 170.960,371.214 170.426 C 370.986 170.001,370.800 168.777,370.800 167.706 C 370.800 166.636,370.591 165.551,370.335 165.295 C 370.079 165.039,369.893 164.193,369.922 163.415 C 369.952 162.637,369.801 162.000,369.588 162.000 C 369.375 162.000,369.200 161.205,369.200 160.233 C 369.200 159.262,369.028 158.407,368.818 158.333 C 368.607 158.260,368.390 157.525,368.336 156.700 C 368.281 155.875,368.093 155.200,367.918 155.200 C 367.743 155.200,367.600 154.840,367.600 154.400 C 367.600 153.960,367.420 153.600,367.200 153.600 C 366.980 153.600,366.800 153.319,366.800 152.976 C 366.800 152.594,366.993 152.462,367.300 152.635 C 367.700 152.861,367.700 152.810,367.300 152.379 C 367.025 152.082,366.800 151.462,366.800 151.000 C 366.800 150.538,366.626 149.986,366.413 149.773 C 366.201 149.561,365.983 148.805,365.928 148.093 C 365.874 147.382,365.688 146.800,365.515 146.800 C 365.342 146.800,365.200 146.249,365.200 145.576 C 365.200 144.863,365.033 144.456,364.800 144.600 C 364.470 144.804,364.277 143.720,364.434 142.545 C 364.453 142.404,364.277 142.172,364.044 142.027 C 363.811 141.883,363.560 141.373,363.487 140.893 C 363.414 140.413,363.229 139.896,363.077 139.744 C 362.925 139.591,362.800 139.152,362.800 138.767 C 362.800 138.382,362.622 138.007,362.403 137.933 C 362.185 137.860,361.966 137.305,361.916 136.700 C 361.866 136.095,361.685 135.600,361.513 135.600 C 361.341 135.600,361.200 135.120,361.200 134.533 C 361.200 133.947,361.083 133.584,360.939 133.727 C 360.599 134.068,359.600 132.132,359.600 131.131 C 359.600 130.703,359.432 130.457,359.226 130.584 C 359.020 130.711,358.731 130.014,358.584 129.035 C 358.437 128.055,358.069 127.159,357.765 127.042 C 357.461 126.925,357.319 126.554,357.450 126.215 C 357.579 125.877,357.486 125.600,357.243 125.600 C 356.999 125.600,356.800 125.240,356.800 124.800 C 356.800 124.360,356.620 124.000,356.400 124.000 C 356.180 124.000,356.000 123.640,356.000 123.200 C 356.000 122.760,355.747 122.400,355.437 122.400 C 355.086 122.400,354.948 122.121,355.070 121.655 C 355.186 121.211,355.012 120.814,354.639 120.670 C 354.275 120.531,354.112 120.173,354.250 119.815 C 354.379 119.477,354.286 119.200,354.043 119.200 C 353.799 119.200,353.600 118.829,353.600 118.376 C 353.600 117.923,353.420 117.664,353.200 117.800 C 352.980 117.936,352.800 117.801,352.800 117.499 C 352.800 117.198,352.431 116.555,351.980 116.070 C 351.528 115.586,351.250 115.042,351.362 114.862 C 351.473 114.681,351.123 113.883,350.582 113.088 C 350.042 112.293,349.600 111.493,349.600 111.310 C 349.600 111.126,349.240 110.717,348.800 110.400 C 348.360 110.083,347.986 109.458,347.968 109.012 C 347.950 108.535,347.850 108.418,347.726 108.728 C 347.496 109.302,346.400 107.527,346.400 106.581 C 346.400 106.291,346.040 105.940,345.600 105.800 C 345.120 105.648,344.800 105.195,344.800 104.668 C 344.800 104.185,344.362 103.461,343.826 103.059 C 343.213 102.598,342.943 102.093,343.096 101.694 C 343.278 101.220,343.166 101.127,342.649 101.326 C 342.243 101.482,342.058 101.430,342.200 101.200 C 342.332 100.986,342.251 100.583,342.019 100.305 C 341.787 100.027,340.939 98.810,340.135 97.600 C 339.331 96.390,337.760 94.500,336.645 93.400 C 335.530 92.300,334.671 91.157,334.736 90.860 C 334.801 90.562,334.662 90.438,334.427 90.583 C 334.192 90.729,334.000 90.657,334.000 90.424 C 334.000 90.191,333.280 89.259,332.400 88.352 C 331.520 87.445,330.800 86.539,330.800 86.338 C 330.800 85.793,328.118 83.215,327.840 83.493 C 327.708 83.625,327.600 83.433,327.600 83.067 C 327.600 82.700,327.465 82.445,327.300 82.500 C 327.135 82.555,327.000 82.497,327.000 82.371 C 327.000 81.876,325.584 80.763,325.231 80.981 C 325.024 81.109,324.725 81.002,324.566 80.745 C 324.385 80.452,324.450 80.384,324.738 80.562 C 325.623 81.109,325.192 80.142,324.072 79.069 C 323.452 78.475,322.822 78.111,322.672 78.261 C 322.523 78.411,322.400 78.223,322.400 77.843 C 322.400 77.463,322.220 77.264,322.000 77.400 C 321.780 77.536,321.600 77.445,321.600 77.198 C 321.600 76.663,317.712 72.800,317.173 72.800 C 316.968 72.800,316.797 72.485,316.794 72.100 C 316.789 71.502,316.731 71.487,316.400 72.000 C 316.071 72.510,316.011 72.492,316.006 71.882 C 315.999 71.103,314.377 69.285,313.531 69.109 C 313.243 69.049,312.529 68.505,311.943 67.900 C 311.358 67.295,310.671 66.800,310.416 66.800 C 310.161 66.800,310.064 66.620,310.200 66.400 C 310.336 66.180,310.156 66.000,309.800 66.000 C 309.444 66.000,309.264 65.820,309.400 65.600 C 309.536 65.380,309.367 65.200,309.024 65.200 C 308.681 65.200,308.400 65.020,308.400 64.800 C 308.400 64.580,308.100 64.400,307.733 64.400 C 307.367 64.400,307.181 64.286,307.321 64.146 C 307.636 63.831,304.401 61.225,303.821 61.326 C 303.589 61.367,303.441 61.186,303.492 60.924 C 303.542 60.663,303.227 60.336,302.792 60.197 C 302.356 60.059,302.000 59.759,302.000 59.530 C 302.000 59.302,301.769 59.203,301.487 59.311 C 301.205 59.420,300.555 59.169,300.043 58.754 C 299.530 58.339,299.234 58.000,299.384 58.000 C 299.534 58.000,299.384 57.727,299.050 57.393 C 298.716 57.059,298.298 56.834,298.121 56.893 C 297.945 56.951,297.195 56.421,296.456 55.714 C 295.717 55.008,294.997 54.444,294.856 54.462 C 294.070 54.562,293.584 54.350,293.800 54.000 C 293.936 53.780,293.677 53.600,293.224 53.600 C 292.771 53.600,292.400 53.420,292.400 53.200 C 292.400 52.980,292.119 52.800,291.776 52.800 C 291.433 52.800,291.264 52.620,291.400 52.400 C 291.536 52.180,291.401 52.000,291.099 52.000 C 290.798 52.000,290.164 51.640,289.692 51.200 C 289.220 50.760,288.691 50.396,288.517 50.391 C 288.343 50.386,287.750 50.030,287.200 49.600 C 286.650 49.170,285.855 48.814,285.433 48.809 C 285.012 48.804,284.783 48.684,284.925 48.541 C 285.274 48.192,281.623 46.371,280.830 46.499 C 280.473 46.556,280.251 46.362,280.316 46.051 C 280.390 45.702,280.209 45.588,279.816 45.738 C 279.470 45.871,279.199 45.762,279.197 45.487 C 279.192 44.794,277.359 44.033,276.337 44.301 C 275.863 44.425,275.574 44.363,275.695 44.163 C 275.817 43.963,275.665 43.568,275.358 43.284 C 275.036 42.987,274.800 42.944,274.800 43.184 C 274.800 43.413,274.609 43.600,274.376 43.600 C 274.143 43.600,274.064 43.420,274.200 43.200 C 274.336 42.980,274.077 42.800,273.624 42.800 C 273.171 42.800,272.800 42.620,272.800 42.400 C 272.800 42.180,272.474 42.000,272.075 42.000 C 271.677 42.000,270.964 41.640,270.492 41.200 C 270.020 40.760,269.356 40.400,269.017 40.400 C 268.678 40.400,268.400 40.220,268.400 40.000 C 268.400 39.780,268.051 39.600,267.624 39.600 C 267.197 39.600,266.736 39.420,266.600 39.200 C 266.464 38.980,265.633 38.800,264.753 38.800 C 263.788 38.800,263.251 38.641,263.400 38.400 C 263.541 38.172,263.196 38.000,262.600 38.000 C 262.004 38.000,261.659 37.828,261.800 37.600 C 261.936 37.380,261.687 37.200,261.247 37.200 C 260.807 37.200,260.336 37.020,260.200 36.800 C 260.064 36.580,259.513 36.400,258.976 36.400 C 258.439 36.400,258.000 36.220,258.000 36.000 C 258.000 35.780,257.460 35.600,256.800 35.600 C 256.140 35.600,255.600 35.420,255.600 35.200 C 255.600 34.980,255.161 34.800,254.624 34.800 C 254.087 34.800,253.536 34.620,253.400 34.400 C 253.264 34.180,252.634 34.000,252.000 34.000 C 251.366 34.000,250.736 33.820,250.600 33.600 C 250.464 33.380,249.643 33.200,248.776 33.200 C 247.882 33.200,247.200 33.007,247.200 32.753 C 247.200 32.507,246.849 32.398,246.419 32.511 C 245.990 32.623,245.581 32.543,245.511 32.332 C 245.440 32.121,244.577 31.846,243.591 31.720 C 242.606 31.595,241.561 31.303,241.270 31.072 C 240.886 30.768,240.638 30.811,240.376 31.226 C 240.123 31.624,240.010 31.647,240.006 31.300 C 240.003 31.012,239.490 30.800,238.800 30.800 C 238.140 30.800,237.600 30.601,237.600 30.358 C 237.600 30.085,237.001 29.973,236.034 30.065 C 235.172 30.148,234.550 30.082,234.650 29.919 C 234.874 29.557,233.641 29.269,231.000 29.069 C 229.900 28.985,228.684 28.781,228.298 28.615 C 227.912 28.449,226.967 28.386,226.198 28.476 C 225.429 28.566,224.800 28.496,224.800 28.320 C 224.800 28.144,224.609 28.000,224.376 28.000 C 224.143 28.000,224.063 28.178,224.197 28.395 C 224.337 28.622,224.177 28.689,223.823 28.554 C 223.483 28.423,223.304 28.155,223.426 27.958 C 223.548 27.761,223.367 27.600,223.024 27.600 C 222.681 27.600,222.397 27.825,222.394 28.100 C 222.389 28.487,222.313 28.483,222.060 28.083 C 221.879 27.799,221.117 27.571,220.366 27.578 C 215.202 27.622,202.976 27.048,202.867 26.756 C 202.793 26.560,202.558 26.400,202.343 26.400 C 202.128 26.400,202.064 26.580,202.200 26.800 C 202.355 27.050,201.530 27.200,200.000 27.200 C 198.470 27.200,197.645 27.050,197.800 26.800 C 197.936 26.580,197.872 26.400,197.657 26.400 C 197.442 26.400,197.207 26.570,197.133 26.778 M223.759 114.867 C 223.645 115.050,223.844 115.200,224.200 115.200 C 224.556 115.200,224.736 115.020,224.600 114.800 C 224.464 114.580,224.543 114.400,224.776 114.400 C 225.009 114.400,225.200 114.580,225.200 114.800 C 225.200 115.365,226.535 115.297,227.179 114.700 C 227.610 114.300,227.661 114.300,227.435 114.700 C 227.220 115.081,227.874 115.200,230.176 115.200 C 231.925 115.200,233.200 115.369,233.200 115.600 C 233.200 115.820,233.884 116.000,234.720 116.000 C 235.556 116.000,236.463 116.223,236.737 116.497 C 237.132 116.892,237.310 116.872,237.611 116.397 C 237.862 115.998,237.990 115.966,237.994 116.300 C 237.997 116.575,238.349 116.800,238.776 116.800 C 239.203 116.800,239.664 116.980,239.800 117.200 C 239.936 117.420,240.712 117.603,241.524 117.606 C 242.624 117.611,242.847 117.711,242.400 118.000 C 241.945 118.294,242.114 118.389,243.100 118.394 C 243.815 118.397,244.400 118.580,244.400 118.800 C 244.400 119.020,244.777 119.200,245.238 119.200 C 245.699 119.200,246.583 119.561,247.202 120.001 C 247.821 120.442,248.612 120.693,248.960 120.560 C 249.341 120.414,249.691 120.572,249.839 120.958 C 249.975 121.311,250.259 121.600,250.471 121.600 C 250.684 121.600,251.129 121.872,251.461 122.204 C 251.793 122.536,252.230 122.705,252.432 122.580 C 252.635 122.455,252.800 122.515,252.800 122.712 C 252.800 123.198,254.767 124.067,255.225 123.784 C 255.426 123.660,255.493 123.815,255.372 124.128 C 255.252 124.441,255.444 124.808,255.798 124.944 C 256.240 125.114,256.348 125.036,256.144 124.695 C 255.760 124.055,257.060 125.046,258.500 126.490 C 259.105 127.096,259.600 127.502,259.600 127.392 C 259.600 127.282,261.940 129.542,264.800 132.415 C 267.660 135.288,270.000 137.816,270.000 138.033 C 270.000 138.249,270.627 139.054,271.393 139.820 C 272.159 140.586,273.084 141.795,273.449 142.506 C 273.813 143.218,274.252 143.892,274.424 144.004 C 274.595 144.116,274.795 144.470,274.868 144.790 C 274.941 145.110,275.360 145.707,275.800 146.117 C 276.240 146.526,276.375 146.747,276.100 146.607 C 275.825 146.467,275.600 146.543,275.600 146.776 C 275.600 147.009,275.780 147.200,276.000 147.200 C 276.220 147.200,276.400 147.560,276.400 148.000 C 276.400 148.440,276.559 148.800,276.753 148.800 C 276.948 148.800,277.203 149.205,277.321 149.700 C 277.753 151.519,278.763 153.798,279.104 153.724 C 279.297 153.683,279.373 154.203,279.273 154.881 C 279.146 155.747,279.230 156.028,279.556 155.827 C 279.811 155.669,279.994 155.689,279.963 155.870 C 279.769 156.982,280.059 158.811,280.395 158.603 C 280.630 158.458,280.684 158.637,280.527 159.045 C 280.375 159.442,280.426 159.631,280.648 159.494 C 280.878 159.352,280.966 159.832,280.866 160.683 C 280.751 161.670,280.838 162.024,281.150 161.831 C 281.600 161.553,281.641 161.801,281.688 165.100 C 281.700 165.925,281.874 166.810,282.076 167.066 C 282.566 167.691,282.552 180.859,282.060 181.163 C 281.850 181.294,281.671 182.359,281.662 183.532 C 281.653 184.704,281.480 185.874,281.277 186.132 C 281.075 186.389,280.900 186.870,280.890 187.200 C 280.834 188.946,280.589 189.917,280.257 189.712 C 280.045 189.581,279.971 189.937,280.086 190.538 C 280.206 191.164,280.066 191.779,279.744 192.046 C 279.445 192.295,279.200 192.915,279.200 193.425 C 279.200 193.935,279.043 194.450,278.852 194.568 C 278.512 194.778,277.840 197.103,277.946 197.700 C 277.976 197.865,277.809 198.000,277.576 198.000 C 277.343 198.000,277.255 198.165,277.380 198.368 C 277.505 198.570,277.336 199.007,277.004 199.339 C 276.672 199.671,276.400 200.226,276.400 200.571 C 276.400 200.917,276.220 201.200,276.000 201.200 C 275.780 201.200,275.600 201.631,275.600 202.158 C 275.600 202.684,275.060 203.693,274.400 204.400 C 273.740 205.107,273.200 205.936,273.200 206.242 C 273.200 206.549,272.975 206.803,272.700 206.806 C 272.367 206.810,272.400 206.942,272.800 207.200 C 273.285 207.514,273.228 207.589,272.500 207.594 C 272.005 207.597,271.600 207.791,271.600 208.024 C 271.600 208.257,271.825 208.333,272.100 208.193 C 272.375 208.053,272.175 208.313,271.656 208.770 C 271.136 209.226,270.854 209.600,271.027 209.600 C 271.201 209.600,270.501 210.407,269.472 211.393 C 268.442 212.380,267.600 213.380,267.600 213.617 C 267.600 213.854,267.420 213.936,267.200 213.800 C 266.980 213.664,266.800 213.839,266.800 214.189 C 266.800 214.539,266.531 214.928,266.202 215.054 C 265.874 215.181,265.721 215.473,265.864 215.704 C 266.007 215.935,265.939 216.010,265.714 215.870 C 265.488 215.731,264.501 216.468,263.519 217.508 C 262.537 218.549,261.389 219.695,260.967 220.055 C 260.545 220.415,259.885 221.126,259.500 221.636 C 259.115 222.146,258.800 222.333,258.800 222.053 C 258.800 221.680,258.639 221.704,258.200 222.143 C 257.870 222.473,257.600 222.946,257.600 223.195 C 257.600 223.444,257.420 223.536,257.200 223.400 C 256.980 223.264,256.786 223.388,256.768 223.676 C 256.745 224.061,256.684 224.071,256.540 223.714 C 256.405 223.383,256.051 223.510,255.424 224.114 C 254.919 224.601,254.601 225.166,254.718 225.368 C 254.835 225.570,254.637 225.623,254.277 225.485 C 253.917 225.347,253.361 225.496,253.040 225.817 C 252.719 226.138,252.218 226.400,251.925 226.400 C 251.632 226.400,251.168 226.760,250.893 227.200 C 250.618 227.640,250.204 228.000,249.973 228.000 C 249.742 228.000,249.666 227.816,249.805 227.591 C 249.944 227.367,249.325 227.564,248.430 228.031 C 247.535 228.498,246.887 229.018,246.992 229.186 C 247.096 229.355,246.653 229.431,246.008 229.356 C 245.363 229.281,244.709 229.423,244.556 229.672 C 244.373 229.967,244.458 230.012,244.800 229.800 C 245.122 229.601,245.226 229.634,245.071 229.885 C 244.933 230.109,244.338 230.201,243.750 230.088 C 243.011 229.947,242.768 230.025,242.964 230.342 C 243.154 230.649,242.835 230.800,242.000 230.800 C 241.314 230.800,240.835 230.935,240.936 231.100 C 241.036 231.265,240.282 231.450,239.259 231.510 C 238.237 231.571,237.340 231.796,237.267 232.010 C 237.193 232.225,236.529 232.400,235.790 232.400 C 235.052 232.400,234.336 232.580,234.200 232.800 C 234.064 233.020,233.738 233.197,233.476 233.194 C 233.190 233.190,233.239 233.033,233.600 232.800 C 233.930 232.587,234.011 232.409,233.780 232.406 C 233.549 232.403,233.189 232.570,232.980 232.779 C 232.771 232.987,231.835 233.202,230.900 233.257 C 229.965 233.312,229.197 233.546,229.194 233.778 C 229.191 234.010,229.026 233.945,228.829 233.633 C 228.522 233.147,228.284 233.156,227.170 233.696 C 225.797 234.361,224.629 234.229,225.061 233.458 C 225.216 233.181,225.104 233.198,224.779 233.500 C 224.359 233.889,218.582 234.000,198.720 234.000 C 174.987 234.000,172.164 234.113,173.606 235.003 C 173.873 235.169,174.005 243.795,173.994 260.327 L 173.977 285.400 156.990 285.400 C 147.647 285.400,140.137 285.355,140.301 285.300 C 140.465 285.245,140.554 246.954,140.498 200.208 L 140.396 115.216 141.298 114.996 C 141.794 114.875,160.408 114.827,182.662 114.888 C 204.916 114.950,223.059 114.895,222.979 114.767 C 222.900 114.638,223.089 114.533,223.400 114.533 C 223.711 114.533,223.872 114.683,223.759 114.867 M174.047 147.500 C 174.073 147.665,174.030 159.320,173.952 173.400 L 173.809 199.000 173.600 173.800 L 173.391 148.600 173.295 173.867 C 173.220 193.778,173.306 199.176,173.700 199.335 C 174.100 199.496,174.100 199.543,173.700 199.568 C 173.425 199.586,173.200 199.774,173.200 199.987 C 173.200 200.201,173.472 200.271,173.805 200.143 C 174.237 199.977,174.339 200.094,174.162 200.555 C 173.936 201.144,176.076 201.200,198.757 201.200 C 218.362 201.200,223.601 201.095,223.606 200.700 C 223.610 200.353,223.723 200.376,223.976 200.774 C 224.291 201.273,224.432 201.273,225.046 200.774 C 225.488 200.415,225.641 200.388,225.453 200.700 C 225.253 201.033,225.419 201.200,225.953 201.200 C 226.393 201.200,226.864 201.020,227.000 200.800 C 227.136 200.580,227.946 200.400,228.800 200.400 C 229.654 200.400,230.464 200.220,230.600 200.000 C 230.736 199.780,231.230 199.600,231.698 199.600 C 232.166 199.600,232.994 199.195,233.539 198.700 C 234.083 198.205,234.399 198.025,234.241 198.300 C 234.082 198.575,234.143 198.800,234.376 198.800 C 234.609 198.800,234.800 198.664,234.800 198.498 C 234.800 198.331,235.341 197.956,236.002 197.663 C 236.664 197.370,237.103 196.966,236.979 196.765 C 236.854 196.564,236.943 196.378,237.176 196.350 C 238.099 196.241,238.245 196.179,238.931 195.600 C 239.322 195.270,240.038 194.578,240.521 194.063 C 241.005 193.548,241.985 192.545,242.700 191.835 C 243.415 191.124,244.003 190.196,244.006 189.772 C 244.011 189.127,244.076 189.099,244.400 189.600 C 244.675 190.026,244.790 190.050,244.794 189.683 C 244.797 189.399,245.160 188.780,245.600 188.308 C 246.040 187.836,246.400 187.213,246.400 186.925 C 246.400 186.636,246.580 186.400,246.800 186.400 C 247.020 186.400,247.200 185.849,247.200 185.176 C 247.200 184.443,247.364 184.054,247.610 184.206 C 247.835 184.345,247.994 184.311,247.963 184.130 C 247.791 183.143,248.053 181.986,248.400 182.200 C 248.642 182.349,248.800 181.804,248.800 180.824 C 248.800 179.795,248.983 179.198,249.300 179.194 C 249.633 179.190,249.600 179.058,249.200 178.800 C 248.800 178.542,248.767 178.410,249.100 178.406 C 249.375 178.403,249.600 178.209,249.600 177.976 C 249.600 177.743,249.375 177.680,249.100 177.835 C 248.700 178.061,248.700 178.010,249.100 177.579 C 249.718 176.913,249.814 169.820,249.200 170.200 C 248.633 170.550,248.703 169.864,249.300 169.221 C 249.700 168.790,249.700 168.739,249.300 168.965 C 248.932 169.173,248.800 168.766,248.800 167.424 C 248.800 166.421,248.620 165.600,248.400 165.600 C 248.180 165.600,248.000 165.150,248.000 164.600 C 248.000 164.050,247.820 163.600,247.600 163.600 C 247.380 163.600,247.200 163.274,247.200 162.876 C 247.200 162.478,246.615 161.545,245.900 160.803 C 245.185 160.062,244.825 159.588,245.100 159.751 C 246.470 160.562,245.105 158.980,239.903 153.725 C 239.209 153.024,238.509 152.533,238.348 152.632 C 238.187 152.732,237.817 152.495,237.527 152.107 C 236.932 151.309,233.820 149.600,232.962 149.600 C 232.653 149.600,232.400 149.407,232.400 149.171 C 232.400 148.936,231.995 148.795,231.500 148.859 C 231.005 148.923,230.330 148.806,230.000 148.600 C 229.670 148.393,228.500 148.111,227.400 147.972 C 226.300 147.833,225.083 147.583,224.695 147.415 C 224.133 147.172,224.039 147.261,224.228 147.855 C 224.452 148.559,224.433 148.561,223.889 147.900 C 223.279 147.161,173.931 146.765,174.047 147.500 M173.388 260.200 C 173.388 273.840,173.438 279.478,173.500 272.729 C 173.561 265.980,173.561 254.820,173.500 247.929 C 173.438 241.038,173.388 246.560,173.388 260.200 M238.000 369.200 C 238.000 369.420,237.595 369.597,237.100 369.594 C 236.372 369.589,236.315 369.514,236.800 369.200 C 237.576 368.699,238.000 368.699,238.000 369.200 " stroke="none" fill="#848484" fill-rule="evenodd"></path><path id="path1" d="M197.758 26.867 C 197.645 27.050,198.673 27.200,200.043 27.200 C 201.413 27.200,202.400 27.067,202.238 26.905 C 201.826 26.493,198.010 26.461,197.758 26.867 M82.577 72.167 C 82.150 72.479,81.936 72.869,82.101 73.034 C 82.265 73.199,82.400 73.123,82.400 72.867 C 82.400 72.610,82.670 72.400,83.000 72.400 C 83.330 72.400,83.600 72.220,83.600 72.000 C 83.600 71.476,83.500 71.493,82.577 72.167 M140.596 200.000 C 140.596 246.750,140.643 265.875,140.700 242.500 C 140.757 219.125,140.757 180.875,140.700 157.500 C 140.643 134.125,140.596 153.250,140.596 200.000 M173.543 148.100 C 173.464 148.375,173.491 159.940,173.602 173.800 L 173.803 199.000 174.002 173.300 C 174.177 150.569,174.097 146.160,173.543 148.100 M248.900 169.369 C 248.900 170.080,249.036 170.324,249.291 170.069 C 249.547 169.813,249.547 169.434,249.291 168.978 C 248.961 168.387,248.900 168.448,248.900 169.369 M26.754 197.700 C 26.515 198.212,26.612 202.084,26.867 202.242 C 27.050 202.355,27.200 201.357,27.200 200.024 C 27.200 198.034,27.024 197.118,26.754 197.700 M372.894 199.975 C 372.894 201.303,373.022 202.310,373.178 202.214 C 373.523 202.000,373.495 198.161,373.145 197.811 C 373.007 197.673,372.894 198.647,372.894 199.975 M225.076 233.478 C 224.927 233.719,225.029 234.001,225.302 234.106 C 225.898 234.332,227.813 233.679,227.492 233.359 C 227.369 233.236,226.908 233.328,226.467 233.564 C 225.876 233.881,225.623 233.868,225.506 233.517 C 225.393 233.180,225.267 233.169,225.076 233.478 M173.591 234.700 C 173.586 234.865,173.590 246.194,173.600 259.875 C 173.616 283.272,173.575 284.775,172.909 285.153 C 172.278 285.511,172.299 285.549,173.094 285.493 L 173.988 285.431 173.988 259.915 C 173.988 245.882,173.901 234.400,173.794 234.400 C 173.687 234.400,173.596 234.535,173.591 234.700 M263.400 361.600 C 263.264 361.820,263.423 362.000,263.753 362.000 C 264.083 362.000,264.464 361.820,264.600 361.600 C 264.736 361.380,264.577 361.200,264.247 361.200 C 263.917 361.200,263.536 361.380,263.400 361.600 M236.800 369.200 C 236.315 369.514,236.372 369.589,237.100 369.594 C 237.595 369.597,238.000 369.420,238.000 369.200 C 238.000 368.699,237.576 368.699,236.800 369.200 M197.786 373.178 C 198.000 373.523,201.839 373.495,202.189 373.145 C 202.327 373.007,201.353 372.894,200.025 372.894 C 198.697 372.894,197.690 373.022,197.786 373.178 " stroke="none" fill="#888484" fill-rule="evenodd"></path></g></svg>