<?xml version="1.0" encoding="utf-8"?>
<svg xmlns="http://www.w3.org/2000/svg" xmlns:xlink="http://www.w3.org/1999/xlink" version="1.1" style="width:0;height:0;position:absolute;overflow:hidden;">
  <defs>
<symbol fill="white" viewBox="0 0 40 40" aria-labelledby="ayesi-material-picture-as-pdf-title" id="si-material-picture-as-pdf"><title id="ayesi-material-picture-as-pdf-title">icon picture-as-pdf</title><path d="M36 0H12C9.79 0 8 1.79 8 4v24c0 2.21 1.79 4 4 4h24c2.21 0 4-1.79 4-4V4c0-2.21-1.79-4-4-4zM19 15c0 1.66-1.34 3-3 3h-2v4h-3V10h5c1.66 0 3 1.34 3 3v2zm10 4c0 1.66-1.34 3-3 3h-5V10h5c1.66 0 3 1.34 3 3v6zm8-6h-3v2h3v3h-3v4h-3V10h6v3zm-23 2h2v-2h-2v2zM4 8H0v28c0 2.21 1.79 4 4 4h28v-4H4V8zm20 11h2v-6h-2v6z"/></symbol>
<symbol fill="white" fill-rule="evenodd" stroke-miterlimit="1.414" clip-rule="evenodd" stroke-linejoin="round" viewBox="0 0 14.583999633789062 16.003000259399414" aria-labelledby="casi-simple-email-title" id="si-simple-email"><title id="casi-simple-email-title">logo of email</title><path fill-rule="nonzero" d="M14.538 7.386a8.253 8.253 0 0 1-.266 1.79 5.18 5.18 0 0 1-.696 1.572c-.31.46-.703.833-1.18 1.117-.48.283-1.053.425-1.723.425-.47 0-.885-.102-1.246-.305-.36-.203-.64-.49-.842-.863-.56.756-1.314 1.134-2.258 1.134-.413 0-.788-.092-1.126-.275a2.345 2.345 0 0 1-.845-.785 3.47 3.47 0 0 1-.49-1.228 5.296 5.296 0 0 1-.064-1.602c.084-.72.248-1.376.488-1.962.24-.587.54-1.088.902-1.503.36-.415.774-.735 1.24-.958a3.46 3.46 0 0 1 1.508-.335c.344 0 .644.026.902.077.258.052.49.122.7.21.21.09.402.19.58.306.177.114.355.232.532.352l-.438 5.04c-.03.242-.024.438.013.59.037.15.097.273.18.364.083.092.18.155.292.19a1.084 1.084 0 0 0 1.026-.202c.21-.17.395-.403.55-.7.154-.298.277-.65.37-1.052.09-.404.145-.84.162-1.31.046-.893-.023-1.71-.206-2.448-.184-.738-.486-1.37-.906-1.894a4.207 4.207 0 0 0-1.624-1.22c-.66-.288-1.45-.433-2.366-.433-.87 0-1.65.17-2.34.51a5.369 5.369 0 0 0-1.778 1.414 6.786 6.786 0 0 0-1.164 2.127c-.28.815-.443 1.7-.49 2.65-.045 1.03.038 1.93.25 2.704.212.774.54 1.42.988 1.938a4.123 4.123 0 0 0 1.674 1.164c.67.257 1.44.386 2.31.386a7.912 7.912 0 0 0 1.516-.163c.25-.05.487-.11.713-.176.226-.067.43-.14.614-.22l.317 1.426c-.2.13-.43.244-.687.34a6.613 6.613 0 0 1-.812.235 7.923 7.923 0 0 1-1.696.19c-1.162 0-2.193-.166-3.092-.498-.898-.332-1.65-.826-2.254-1.482-.604-.655-1.055-1.47-1.353-2.447C.126 10.6 0 9.466.045 8.179c.052-1.174.268-2.26.65-3.26.38-.998.902-1.86 1.566-2.59A7.136 7.136 0 0 1 4.65.62C5.574.206 6.604 0 7.744 0c1.134 0 2.133.18 2.998.537.864.358 1.586.86 2.164 1.51.578.65 1.006 1.428 1.284 2.333.278.905.394 1.907.348 3.006zm-8.588.98c-.063.743-.005 1.306.176 1.687.18.38.47.57.87.57a.961.961 0 0 0 .298-.055c.11-.037.226-.106.343-.206.118-.1.234-.24.348-.42.116-.18.222-.418.32-.71l.342-3.916c-.17-.046-.35-.07-.532-.07-.344 0-.638.07-.885.203a1.752 1.752 0 0 0-.627.596 3.5 3.5 0 0 0-.416.98c-.106.39-.185.835-.236 1.34z"/></symbol>
<symbol fill="white" fill-rule="evenodd" stroke-miterlimit="1.414" clip-rule="evenodd" stroke-linejoin="round" viewBox="0 0 16.52777099609375 15.667875289916992" aria-labelledby="cusi-simple-github-title" id="si-simple-github"><title id="cusi-simple-github-title">logo of github</title><path d="M8 0a8 8 0 0 0-8 8 8 8 0 0 0 5.47 7.59c.4.076.547-.171.547-.384 0-.19-.007-.693-.01-1.36-2.226.483-2.695-1.073-2.695-1.073-.364-.924-.89-1.17-.89-1.17-.725-.496.056-.486.056-.486.803.056 1.225.824 1.225.824.714 1.223 1.873.87 2.33.665.072-.517.278-.87.507-1.07-1.777-.2-3.644-.888-3.644-3.953 0-.873.31-1.587.823-2.147-.083-.202-.358-1.015.077-2.117 0 0 .672-.215 2.2.82A7.68 7.68 0 0 1 8 3.869c.68.004 1.364.092 2.003.27 1.527-1.035 2.198-.82 2.198-.82.437 1.102.163 1.915.08 2.117.513.56.823 1.274.823 2.147 0 3.073-1.87 3.75-3.653 3.947.287.246.543.735.543 1.48 0 1.07-.01 1.933-.01 2.195 0 .215.144.463.55.385A8 8 0 0 0 8 0"/></symbol>
<symbol fill="white" fill-rule="evenodd" stroke-miterlimit="1.414" clip-rule="evenodd" stroke-linejoin="round" viewBox="0 0 16 16" aria-labelledby="eqsi-simple-linkedin-title" id="si-simple-linkedin"><title id="eqsi-simple-linkedin-title">logo of linkedin</title><path fill-rule="nonzero" d="M13.632 13.635h-2.37V9.922c0-.886-.018-2.025-1.234-2.025-1.235 0-1.424.964-1.424 1.96v3.778h-2.37V6H8.51v1.04h.03c.318-.6 1.092-1.233 2.247-1.233 2.4 0 2.845 1.58 2.845 3.637v4.188zM3.558 4.955a1.376 1.376 0 1 1-.001-2.751 1.376 1.376 0 0 1 .001 2.751zm1.188 8.68H2.37V6h2.376v7.635zM14.816 0H1.18C.528 0 0 .516 0 1.153v13.694C0 15.484.528 16 1.18 16h13.635c.652 0 1.185-.516 1.185-1.153V1.153C16 .516 15.467 0 14.815 0z"/></symbol>
  </defs>
</svg>
